<svg width="16" height="16" viewBox="0 0 16 16" fill="none" xmlns="http://www.w3.org/2000/svg">
<path d="M0.0675049 2.2918C0.0675049 1.77936 0.225955 1.37481 0.542855 1.07814C0.859755 0.781466 1.28117 0.63313 1.80708 0.63313C2.0633 0.63313 2.29255 0.680328 2.49483 0.774724C2.62968 0.855635 2.78476 0.983743 2.96006 1.15905C3.1084 1.30739 3.21965 1.48269 3.29382 1.68497C3.36799 1.88725 3.40507 2.12323 3.40507 2.39294C3.40507 2.66264 3.33765 2.91886 3.20279 3.16159C3.08143 3.37735 2.92298 3.54929 2.72744 3.67739C2.53191 3.8055 2.30603 3.89653 2.04982 3.95047C1.73966 4.00441 1.45647 3.98418 1.20025 3.88978C0.849641 3.75493 0.579939 3.56614 0.391148 3.32341C0.175386 3.05371 0.0675049 2.70984 0.0675049 2.2918ZM7.61243 0.612903C7.96304 0.612903 8.23948 0.680328 8.44176 0.815179C8.71146 1.00397 8.91374 1.19276 9.04859 1.38155C9.2239 1.63777 9.31155 1.94119 9.31155 2.2918C9.31155 2.52105 9.2711 2.73007 9.19018 2.91886C9.13624 3.04022 9.04185 3.1953 8.907 3.38409V3.40432C8.78563 3.57963 8.6137 3.71785 8.39119 3.81899C8.16869 3.92013 7.91584 3.9707 7.63265 3.9707C7.02582 3.9707 6.5471 3.70774 6.19649 3.18182C6.03467 2.93909 5.95376 2.64241 5.95376 2.2918C5.95376 1.94119 6.04815 1.62429 6.23694 1.3411L6.39877 1.15905C6.50665 1.01071 6.67521 0.882605 6.90446 0.774724C7.1337 0.666842 7.36969 0.612903 7.61243 0.612903ZM13.5796 0.612903C14.0516 0.612903 14.4393 0.771353 14.7427 1.08825C15.0461 1.40515 15.1978 1.80634 15.1978 2.2918C15.1978 2.58847 15.1573 2.82446 15.0764 2.99977C15.009 3.1481 14.8876 3.30993 14.7123 3.48523C14.537 3.66054 14.355 3.78528 14.1662 3.85944C13.9774 3.93361 13.7279 3.9707 13.4178 3.9707C13.0267 3.9707 12.6896 3.84259 12.4064 3.58637C12.1637 3.34364 11.9951 3.04697 11.9007 2.69635L11.8805 2.63567C11.8535 2.52779 11.84 2.45362 11.84 2.41317C11.84 2.07604 11.9041 1.78274 12.0322 1.53326C12.1603 1.28379 12.3322 1.08488 12.548 0.936545L12.5884 0.916317C12.8581 0.727526 13.0806 0.63313 13.2559 0.63313L13.5796 0.612903ZM1.72617 6.51938C1.95542 6.51938 2.16444 6.55984 2.35323 6.64075C2.4746 6.69469 2.62968 6.78908 2.81847 6.92394H2.8387C3.014 7.0453 3.15222 7.21724 3.25336 7.43974C3.3545 7.66225 3.40507 7.91509 3.40507 8.19828C3.40507 8.48147 3.3545 8.73431 3.25336 8.95682C3.15222 9.17932 3.00726 9.35463 2.81847 9.48274C2.62968 9.61084 2.4746 9.70187 2.35323 9.75581C2.16444 9.83672 1.95542 9.87718 1.72617 9.87718C1.30814 9.87718 0.957522 9.76255 0.674335 9.53331C0.445088 9.33103 0.256296 9.04784 0.10796 8.68374C0.08099 8.57586 0.0675049 8.41404 0.0675049 8.19828C0.0675049 7.90161 0.114703 7.65213 0.209099 7.44985C0.276524 7.315 0.404633 7.15318 0.593424 6.96439C0.890097 6.66772 1.26768 6.51938 1.72617 6.51938ZM7.67311 6.51938C7.84842 6.51938 7.98664 6.53287 8.08778 6.55984C8.18891 6.58681 8.30691 6.64075 8.44176 6.72166C8.71146 6.88348 8.91374 7.06553 9.04859 7.26781C9.21041 7.52402 9.29132 7.83418 9.29132 8.19828C9.29132 8.56238 9.21041 8.87253 9.04859 9.12875C8.91374 9.33103 8.71146 9.51308 8.44176 9.6749C8.30691 9.75581 8.19229 9.80638 8.09789 9.82661C8.00349 9.84683 7.84842 9.85695 7.63265 9.85695C7.3225 9.85695 7.07302 9.80975 6.88423 9.71535C6.74938 9.64793 6.58756 9.51982 6.39877 9.33103C6.25043 9.18269 6.14255 9.02424 6.07512 8.85568C6.0077 8.68711 5.97398 8.46798 5.97398 8.19828C5.97398 7.996 5.9841 7.85441 6.00433 7.7735C6.02455 7.69259 6.06838 7.58471 6.13581 7.44985L6.25717 7.20712C6.3246 7.09924 6.42911 6.99136 6.5707 6.88348C6.71229 6.7756 6.83703 6.70143 6.94491 6.66098L7.18764 6.58006C7.26856 6.55309 7.3225 6.53961 7.34947 6.53961H7.38992C7.4978 6.52612 7.5922 6.51938 7.67311 6.51938ZM13.5391 6.51938C13.8088 6.51938 14.0516 6.57332 14.2673 6.6812C14.564 6.82954 14.7865 7.01159 14.9348 7.22735C15.1101 7.49705 15.1978 7.8207 15.1978 8.19828C15.1978 8.42753 15.1708 8.6298 15.1169 8.80511C15.0764 8.91299 14.9922 9.06133 14.864 9.25012C14.7359 9.43891 14.5573 9.59062 14.328 9.70524C14.0988 9.81986 13.8358 9.87718 13.5391 9.87718C12.9728 9.87718 12.5345 9.66816 12.2243 9.25012C12.103 9.0883 12.0153 8.93996 11.9614 8.80511C11.8939 8.6298 11.8602 8.42753 11.8602 8.19828C11.8602 7.96903 11.8939 7.76676 11.9614 7.59145C12.0153 7.4566 12.1063 7.30489 12.2344 7.13633C12.3626 6.96776 12.5075 6.84303 12.6693 6.76211L12.73 6.74189C12.8784 6.66098 12.993 6.60704 13.0739 6.58006C13.2087 6.53961 13.3638 6.51938 13.5391 6.51938ZM1.80708 12.4259C2.21164 12.4259 2.55551 12.554 2.8387 12.8102C3.09491 13.0259 3.27022 13.3226 3.36462 13.7002C3.39159 13.8081 3.40507 13.9025 3.40507 13.9834C3.40507 14.5228 3.25673 14.9408 2.96006 15.2375C2.77127 15.4263 2.60945 15.5544 2.4746 15.6218C2.27232 15.7162 2.02285 15.7634 1.72617 15.7634C1.22722 15.7634 0.826043 15.6117 0.522627 15.3083C0.219212 15.0049 0.0675049 14.6037 0.0675049 14.1048C0.0675049 13.8081 0.114703 13.5654 0.209099 13.3766C0.276524 13.2282 0.408004 13.0563 0.603538 12.8608C0.799072 12.6652 0.997978 12.5472 1.20025 12.5068L1.34185 12.4663C1.40927 12.4393 1.45647 12.4259 1.48344 12.4259H1.80708ZM7.71356 12.4259C8.26645 12.4259 8.71821 12.6888 9.06882 13.2147C9.23064 13.4575 9.31155 13.7541 9.31155 14.1048C9.31155 14.5633 9.16321 14.9408 8.86654 15.2375C8.69124 15.4128 8.52941 15.5409 8.38108 15.6218C8.1788 15.7162 7.92933 15.7634 7.63265 15.7634C7.40341 15.7634 7.2281 15.7432 7.10673 15.7027C6.98537 15.6623 6.85052 15.5949 6.70218 15.5005C6.20323 15.1633 5.95376 14.6981 5.95376 14.1048C5.95376 13.8216 6.01444 13.5654 6.13581 13.3361C6.2302 13.1608 6.3718 12.9788 6.56059 12.79C6.62801 12.7225 6.72241 12.6619 6.84377 12.6079C6.92469 12.5675 7.03931 12.527 7.18764 12.4865L7.38992 12.4259C7.41689 12.4124 7.48432 12.4124 7.5922 12.4259H7.71356ZM13.5189 12.4056C13.5054 12.4056 13.4852 12.4056 13.4582 12.4056L13.3773 12.4259C12.9997 12.4259 12.6761 12.5607 12.4064 12.8304C12.1502 13.0597 11.9816 13.3496 11.9007 13.7002L11.8805 13.7609C11.8535 13.8688 11.84 13.9429 11.84 13.9834C11.84 14.6576 12.1097 15.1768 12.6491 15.5409C12.7705 15.6218 12.8986 15.6791 13.0334 15.7129C13.1683 15.7466 13.3369 15.7634 13.5391 15.7634C14.0381 15.7634 14.4393 15.6117 14.7427 15.3083C15.0461 15.0049 15.1978 14.6037 15.1978 14.1048C15.1978 13.8081 15.1573 13.5721 15.0764 13.3968C15.009 13.2485 14.8876 13.0866 14.7123 12.9113C14.5775 12.7765 14.4426 12.6753 14.3078 12.6079C14.1729 12.5405 13.9909 12.4798 13.7616 12.4259C13.7077 12.4124 13.6268 12.4056 13.5189 12.4056Z" fill="#D5D7E3"/>
</svg>
