<svg width="16" height="16" viewBox="0 0 16 16" fill="none" xmlns="http://www.w3.org/2000/svg">
<path d="M0.625488 2.2918C0.625488 1.77936 0.783938 1.37481 1.10084 1.07814C1.41774 0.781466 1.83915 0.63313 2.36507 0.63313C2.62129 0.63313 2.85053 0.680328 3.05281 0.774724C3.18766 0.855635 3.34274 0.983743 3.51805 1.15905C3.66638 1.30739 3.77763 1.48269 3.8518 1.68497C3.92597 1.88725 3.96305 2.12323 3.96305 2.39294C3.96305 2.66264 3.89563 2.91886 3.76078 3.16159C3.63941 3.37735 3.48096 3.54929 3.28543 3.67739C3.08989 3.8055 2.86402 3.89653 2.6078 3.95047C2.29764 4.00441 2.01445 3.98418 1.75824 3.88978C1.40762 3.75493 1.13792 3.56614 0.949131 3.32341C0.733369 3.05371 0.625488 2.70984 0.625488 2.2918ZM8.17041 0.612903C8.52102 0.612903 8.79747 0.680328 8.99974 0.815179C9.26945 1.00397 9.47172 1.19276 9.60657 1.38155C9.78188 1.63777 9.86953 1.94119 9.86953 2.2918C9.86953 2.52105 9.82908 2.73007 9.74817 2.91886C9.69423 3.04022 9.59983 3.1953 9.46498 3.38409V3.40432C9.34361 3.57963 9.17168 3.71785 8.94917 3.81899C8.72667 3.92013 8.47382 3.9707 8.19064 3.9707C7.58381 3.9707 7.10509 3.70774 6.75447 3.18182C6.59265 2.93909 6.51174 2.64241 6.51174 2.2918C6.51174 1.94119 6.60614 1.62429 6.79493 1.3411L6.95675 1.15905C7.06463 1.01071 7.23319 0.882605 7.46244 0.774724C7.69169 0.666842 7.92768 0.612903 8.17041 0.612903ZM14.1376 0.612903C14.6096 0.612903 14.9972 0.771353 15.3007 1.08825C15.6041 1.40515 15.7558 1.80634 15.7558 2.2918C15.7558 2.58847 15.7153 2.82446 15.6344 2.99977C15.567 3.1481 15.4456 3.30993 15.2703 3.48523C15.095 3.66054 14.913 3.78528 14.7242 3.85944C14.5354 3.93361 14.2859 3.9707 13.9758 3.9707C13.5847 3.9707 13.2476 3.84259 12.9644 3.58637C12.7216 3.34364 12.5531 3.04697 12.4587 2.69635L12.4384 2.63567C12.4115 2.52779 12.398 2.45362 12.398 2.41317C12.398 2.07604 12.462 1.78274 12.5902 1.53326C12.7183 1.28379 12.8902 1.08488 13.106 0.936545L13.1464 0.916317C13.4161 0.727526 13.6386 0.63313 13.8139 0.63313L14.1376 0.612903ZM2.28416 6.51938C2.5134 6.51938 2.72242 6.55984 2.91122 6.64075C3.03258 6.69469 3.18766 6.78908 3.37645 6.92394H3.39668C3.57199 7.0453 3.71021 7.21724 3.81135 7.43974C3.91248 7.66225 3.96305 7.91509 3.96305 8.19828C3.96305 8.48147 3.91248 8.73431 3.81135 8.95682C3.71021 9.17932 3.56524 9.35463 3.37645 9.48274C3.18766 9.61084 3.03258 9.70187 2.91122 9.75581C2.72242 9.83672 2.5134 9.87718 2.28416 9.87718C1.86612 9.87718 1.51551 9.76255 1.23232 9.53331C1.00307 9.33103 0.81428 9.04784 0.665944 8.68374C0.638973 8.57586 0.625488 8.41404 0.625488 8.19828C0.625488 7.90161 0.672686 7.65213 0.767082 7.44985C0.834508 7.315 0.962616 7.15318 1.15141 6.96439C1.44808 6.66772 1.82566 6.51938 2.28416 6.51938ZM8.23109 6.51938C8.4064 6.51938 8.54462 6.53287 8.64576 6.55984C8.7469 6.58681 8.86489 6.64075 8.99974 6.72166C9.26945 6.88348 9.47172 7.06553 9.60657 7.26781C9.7684 7.52402 9.84931 7.83418 9.84931 8.19828C9.84931 8.56238 9.7684 8.87253 9.60657 9.12875C9.47172 9.33103 9.26945 9.51308 8.99974 9.6749C8.86489 9.75581 8.75027 9.80638 8.65587 9.82661C8.56148 9.84683 8.4064 9.85695 8.19064 9.85695C7.88048 9.85695 7.631 9.80975 7.44221 9.71535C7.30736 9.64793 7.14554 9.51982 6.95675 9.33103C6.80841 9.18269 6.70053 9.02424 6.63311 8.85568C6.56568 8.68711 6.53197 8.46798 6.53197 8.19828C6.53197 7.996 6.54208 7.85441 6.56231 7.7735C6.58254 7.69259 6.62636 7.58471 6.69379 7.44985L6.81516 7.20712C6.88258 7.09924 6.98709 6.99136 7.12868 6.88348C7.27028 6.7756 7.39502 6.70143 7.5029 6.66098L7.74563 6.58006C7.82654 6.55309 7.88048 6.53961 7.90745 6.53961H7.94791C8.05579 6.52612 8.15018 6.51938 8.23109 6.51938ZM14.0971 6.51938C14.3668 6.51938 14.6096 6.57332 14.8253 6.6812C15.122 6.82954 15.3445 7.01159 15.4928 7.22735C15.6681 7.49705 15.7558 7.8207 15.7558 8.19828C15.7558 8.42753 15.7288 8.6298 15.6749 8.80511C15.6344 8.91299 15.5501 9.06133 15.422 9.25012C15.2939 9.43891 15.1152 9.59062 14.886 9.70524C14.6567 9.81986 14.3938 9.87718 14.0971 9.87718C13.5307 9.87718 13.0925 9.66816 12.7823 9.25012C12.661 9.0883 12.5733 8.93996 12.5194 8.80511C12.4519 8.6298 12.4182 8.42753 12.4182 8.19828C12.4182 7.96903 12.4519 7.76676 12.5194 7.59145C12.5733 7.4566 12.6643 7.30489 12.7924 7.13633C12.9205 6.96776 13.0655 6.84303 13.2273 6.76211L13.288 6.74189C13.4363 6.66098 13.551 6.60704 13.6319 6.58006C13.7667 6.53961 13.9218 6.51938 14.0971 6.51938ZM2.36507 12.4259C2.76962 12.4259 3.11349 12.554 3.39668 12.8102C3.6529 13.0259 3.8282 13.3226 3.9226 13.7002C3.94957 13.8081 3.96305 13.9025 3.96305 13.9834C3.96305 14.5228 3.81472 14.9408 3.51805 15.2375C3.32925 15.4263 3.16743 15.5544 3.03258 15.6218C2.8303 15.7162 2.58083 15.7634 2.28416 15.7634C1.78521 15.7634 1.38403 15.6117 1.08061 15.3083C0.777196 15.0049 0.625488 14.6037 0.625488 14.1048C0.625488 13.8081 0.672686 13.5654 0.767082 13.3766C0.834508 13.2282 0.965987 13.0563 1.16152 12.8608C1.35706 12.6652 1.55596 12.5472 1.75824 12.5068L1.89983 12.4663C1.96726 12.4393 2.01445 12.4259 2.04143 12.4259H2.36507ZM8.27155 12.4259C8.82444 12.4259 9.27619 12.6888 9.6268 13.2147C9.78862 13.4575 9.86953 13.7541 9.86953 14.1048C9.86953 14.5633 9.7212 14.9408 9.42453 15.2375C9.24922 15.4128 9.0874 15.5409 8.93906 15.6218C8.73678 15.7162 8.48731 15.7634 8.19064 15.7634C7.96139 15.7634 7.78608 15.7432 7.66472 15.7027C7.54335 15.6623 7.4085 15.5949 7.26016 15.5005C6.76122 15.1633 6.51174 14.6981 6.51174 14.1048C6.51174 13.8216 6.57242 13.5654 6.69379 13.3361C6.78819 13.1608 6.92978 12.9788 7.11857 12.79C7.186 12.7225 7.28039 12.6619 7.40176 12.6079C7.48267 12.5675 7.59729 12.527 7.74563 12.4865L7.94791 12.4259C7.97488 12.4124 8.0423 12.4124 8.15018 12.4259H8.27155ZM14.0769 12.4056C14.0634 12.4056 14.0432 12.4056 14.0162 12.4056L13.9353 12.4259C13.5577 12.4259 13.2341 12.5607 12.9644 12.8304C12.7081 13.0597 12.5396 13.3496 12.4587 13.7002L12.4384 13.7609C12.4115 13.8688 12.398 13.9429 12.398 13.9834C12.398 14.6576 12.6677 15.1768 13.2071 15.5409C13.3285 15.6218 13.4566 15.6791 13.5914 15.7129C13.7263 15.7466 13.8948 15.7634 14.0971 15.7634C14.5961 15.7634 14.9972 15.6117 15.3007 15.3083C15.6041 15.0049 15.7558 14.6037 15.7558 14.1048C15.7558 13.8081 15.7153 13.5721 15.6344 13.3968C15.567 13.2485 15.4456 13.0866 15.2703 12.9113C15.1355 12.7765 15.0006 12.6753 14.8658 12.6079C14.7309 12.5405 14.5489 12.4798 14.3196 12.4259C14.2657 12.4124 14.1848 12.4056 14.0769 12.4056Z" fill="url(#paint0_linear_1_2708)"/>
<defs>
<linearGradient id="paint0_linear_1_2708" x1="8.19064" y1="15.7634" x2="8.19064" y2="0.612903" gradientUnits="userSpaceOnUse">
<stop stop-color="#6DE9F4"/>
<stop offset="0.0001" stop-color="#3EB1E0"/>
<stop offset="1" stop-color="#0E77CC"/>
</linearGradient>
</defs>
</svg>
